<?xml version="1.0" standalone="no"?>
<!DOCTYPE svg PUBLIC "-//W3C//DTD SVG 20010904//EN"
 "http://www.w3.org/TR/2001/REC-SVG-20010904/DTD/svg10.dtd">
<svg version="1.0" xmlns="http://www.w3.org/2000/svg"
 width="300.000000pt" height="300.000000pt" viewBox="0 0 300.000000 300.000000"
 preserveAspectRatio="xMidYMid meet">
<metadata>
Created by potrace 1.14, written by Peter Selinger 2001-2017
</metadata>
<g transform="translate(0.000000,300.000000) scale(0.100000,-0.100000)"
fill="#000000" stroke="none">
<path d="M0 1500 l0 -1500 1500 0 1500 0 0 1500 0 1500 -1500 0 -1500 0 0
-1500z m200 1445 c0 -8 9 -15 20 -15 19 0 20 -7 20 -250 0 -160 4 -250 10
-250 6 0 10 27 10 60 l0 60 160 0 160 0 0 -60 c0 -47 3 -60 15 -60 13 0 15 34
15 250 0 216 2 250 15 250 8 0 15 7 15 15 0 13 133 15 1140 15 1007 0 1140 -2
1140 -15 0 -8 9 -15 20 -15 20 0 20 -7 20 -1232 0 -678 -3 -1243 -6 -1256 -4
-12 -13 -22 -20 -22 -8 0 -14 -7 -14 -15 0 -8 -7 -15 -15 -15 -10 0 -15 10
-15 30 l0 30 -1140 0 -1140 0 0 65 c0 58 -2 65 -20 65 -16 0 -20 7 -20 30 0
17 -4 30 -10 30 -6 0 -10 -27 -10 -60 0 -47 3 -60 15 -60 13 0 15 -13 13 -77
l-3 -78 -157 -3 -158 -3 0 81 c0 64 3 80 15 80 12 0 15 13 15 60 0 33 -4 60
-10 60 -5 0 -10 -13 -10 -30 0 -20 -5 -30 -15 -30 -10 0 -15 -16 -17 -62 l-3
-63 -65 0 -65 0 -3 1108 c-1 726 -6 1107 -12 1107 -6 0 -10 -7 -10 -15 0 -8
-8 -15 -18 -15 -16 0 -17 11 -14 142 5 170 8 176 105 177 35 1 47 -3 47 -14z
m380 -165 l0 -80 -30 0 c-29 0 -29 -1 -32 -62 l-3 -63 -125 0 -125 0 -3 143
-3 142 161 0 160 0 0 -80z m2245 -2635 l0 -60 -47 -3 c-40 -3 -48 -6 -48 -23
0 -14 -7 -19 -30 -19 -23 0 -30 4 -30 20 0 18 -7 20 -64 20 -55 0 -64 -3 -62
-18 2 -27 -54 -30 -61 -3 -5 18 -13 21 -63 21 -49 0 -58 -3 -63 -20 -7 -28
-57 -28 -64 0 -5 17 -14 20 -64 20 -52 0 -59 -2 -59 -20 0 -16 -7 -20 -30 -20
-23 0 -30 4 -30 20 0 18 -7 20 -65 20 -58 0 -65 -2 -65 -20 0 -16 -7 -20 -30
-20 -23 0 -30 4 -30 20 0 18 -7 20 -64 20 -55 0 -64 -3 -62 -18 2 -27 -54 -30
-61 -3 -5 18 -13 21 -63 21 -49 0 -58 -3 -63 -20 -7 -28 -57 -28 -64 0 -5 17
-14 20 -64 20 -52 0 -59 -2 -59 -20 0 -16 -7 -20 -30 -20 -23 0 -30 4 -30 20
0 18 -7 20 -65 20 -58 0 -65 -2 -65 -20 0 -16 -7 -20 -30 -20 -23 0 -30 4 -30
20 0 18 -7 20 -64 20 -55 0 -64 -3 -62 -18 2 -27 -54 -30 -61 -3 -5 18 -13 21
-63 21 -49 0 -58 -3 -63 -20 -7 -28 -57 -28 -64 0 -5 17 -14 20 -64 20 -52 0
-59 -2 -59 -20 0 -16 -7 -20 -30 -20 -23 0 -30 4 -30 20 0 18 -7 20 -65 20
-58 0 -65 -2 -65 -20 0 -16 -7 -20 -30 -20 -23 0 -30 4 -30 20 0 18 -7 20 -64
20 -55 0 -64 -3 -62 -18 2 -27 -54 -30 -61 -3 -4 15 -13 21 -34 21 -29 0 -29
0 -29 65 l0 65 1328 -2 1327 -3 0 -60z"/>
<path d="M800 2800 l0 -90 860 0 c853 0 860 0 860 -20 0 -20 -7 -20 -860 -20
l-860 0 0 -921 c0 -649 3 -918 11 -914 6 4 13 -2 16 -14 l5 -21 838 0 c829 0
838 0 843 20 3 13 14 20 31 20 l26 0 2 915 c3 866 2 915 -14 915 -16 0 -18 11
-18 95 0 78 -3 95 -15 95 -8 0 -15 7 -15 15 0 13 -102 15 -855 15 l-855 0 0
-90z m590 -295 c0 -10 10 -15 30 -15 16 0 33 -6 37 -13 4 -8 25 -17 47 -20 67
-11 63 -26 -9 -34 -37 -5 -45 -3 -45 11 0 11 -9 16 -30 16 -20 0 -30 5 -30 15
0 8 -4 15 -10 15 -105 5 -265 0 -268 -9 -5 -14 -72 -15 -72 -1 0 6 14 10 30
10 23 0 30 4 30 20 0 19 7 20 145 20 122 0 145 -2 145 -15z m220 -70 c0 -33
-4 -45 -15 -45 -11 0 -15 -12 -15 -45 0 -33 -4 -45 -14 -45 -11 0 -16 -14 -18
-47 -2 -36 -7 -49 -20 -51 -13 -2 -18 3 -18 17 0 12 -6 21 -15 21 -8 0 -15 7
-15 15 0 10 -10 15 -30 15 -20 0 -30 5 -30 15 0 10 -10 15 -30 15 -20 0 -30 5
-30 15 0 12 -16 15 -80 15 -72 0 -80 -2 -80 -19 0 -11 -4 -21 -9 -23 -4 -1
-11 -33 -15 -70 -5 -57 -4 -68 9 -68 8 0 15 -9 15 -20 0 -16 7 -20 35 -20 24
0 35 -5 35 -15 0 -9 9 -15 25 -15 16 0 25 -6 25 -15 0 -10 11 -15 35 -15 24 0
35 -5 35 -15 0 -10 10 -15 30 -15 20 0 30 -5 30 -15 0 -10 10 -15 30 -15 20 0
30 -5 30 -15 0 -10 -10 -15 -30 -15 -20 0 -30 5 -30 15 0 10 -10 15 -30 15
-20 0 -30 5 -30 15 0 10 -11 15 -35 15 -24 0 -35 5 -35 15 0 9 -9 15 -25 15
-16 0 -25 6 -25 15 0 10 -11 15 -35 15 -24 0 -35 5 -35 15 0 8 -7 15 -15 15
-8 0 -15 6 -15 14 0 7 -9 16 -20 19 -18 5 -20 14 -20 81 0 69 2 76 20 76 11 0
20 6 20 13 0 7 9 20 20 30 28 23 170 25 170 2 0 -10 10 -15 30 -15 20 0 30 -5
30 -15 0 -10 10 -15 30 -15 20 0 30 -5 30 -15 0 -8 7 -15 15 -15 8 0 15 7 15
15 0 8 9 15 20 15 17 0 20 7 20 45 0 33 4 45 15 45 10 0 15 10 15 30 0 18 -6
33 -15 36 -25 10 -17 24 15 24 29 0 30 -2 30 -45z m-570 5 c0 -5 -7 -10 -15
-10 -10 0 -15 -11 -15 -35 0 -24 -5 -35 -15 -35 -10 0 -15 -10 -15 -30 0 -20
-5 -30 -15 -30 -13 0 -15 -22 -15 -140 0 -133 1 -140 20 -140 20 0 25 -15 14
-44 -10 -25 -34 -19 -34 9 0 16 -6 25 -15 25 -13 0 -15 23 -15 145 0 122 2
145 15 145 10 0 15 10 15 30 0 20 5 30 15 30 10 0 15 10 15 27 0 27 26 61 48
62 6 1 12 -3 12 -9z m1380 -435 c0 -33 4 -45 15 -45 12 0 15 -19 15 -115 l0
-115 -45 0 c-45 0 -45 0 -45 35 0 24 -5 35 -15 35 -8 0 -15 7 -15 15 0 8 -7
15 -15 15 -8 0 -15 7 -15 15 0 10 -10 15 -30 15 -18 0 -33 6 -36 15 -4 9 -19
15 -35 15 l-29 0 0 -405 c0 -398 0 -405 20 -405 16 0 20 -7 20 -30 0 -16 5
-30 10 -30 6 0 10 -9 10 -20 0 -26 -20 -26 -27 0 -3 11 -14 20 -24 20 -14 0
-19 7 -19 29 0 16 -5 31 -11 33 -8 3 -11 130 -12 423 l-1 420 49 0 c37 0 49
-4 53 -17 3 -13 11 -16 29 -12 19 5 25 2 30 -15 3 -11 12 -21 19 -21 8 0 14
-4 14 -10 0 -5 9 -19 20 -30 11 -11 25 -20 30 -20 6 0 10 -7 10 -15 0 -8 7
-15 15 -15 12 0 15 17 15 95 0 78 -3 95 -15 95 -10 0 -15 10 -15 28 l0 27
-390 0 -390 0 0 -58 c0 -42 -4 -59 -15 -63 -11 -5 -15 -22 -15 -65 0 -46 3
-59 15 -59 8 0 15 7 15 15 0 8 7 15 15 15 8 0 15 7 15 15 0 8 7 15 15 15 8 0
15 7 15 15 0 8 7 15 15 15 9 0 15 9 15 21 0 17 4 20 29 14 22 -5 29 -2 33 12
4 15 13 18 51 15 l47 -4 0 -419 c0 -366 -2 -419 -15 -419 -10 0 -15 -10 -15
-30 0 -23 -4 -30 -20 -30 -14 0 -20 -7 -20 -21 0 -24 -23 -21 -28 4 -2 10 3
17 12 17 11 0 16 9 16 30 0 23 5 30 19 30 18 0 19 16 20 405 l2 405 -36 0
c-24 0 -35 -5 -35 -15 0 -10 -10 -15 -30 -15 -20 0 -30 -5 -30 -15 0 -8 -7
-15 -15 -15 -8 0 -15 -7 -15 -15 0 -8 -7 -15 -15 -15 -10 0 -15 -11 -15 -35 0
-35 0 -35 -45 -35 l-45 0 0 80 c0 64 3 80 15 80 12 0 15 16 15 80 l0 80 420 0
420 0 0 -45z m-1410 -65 c0 -11 7 -20 15 -20 8 0 15 -7 15 -15 0 -10 11 -15
35 -15 19 0 35 -4 35 -10 0 -5 13 -10 29 -10 52 0 49 -33 -3 -42 -22 -5 -30
-2 -33 13 -3 11 -14 19 -25 19 -21 0 -98 70 -98 89 0 6 7 11 15 11 8 0 15 -9
15 -20z m220 -125 c0 -10 10 -15 30 -15 20 0 30 -5 30 -15 0 -10 -10 -15 -30
-15 -20 0 -30 5 -30 15 0 10 -10 15 -30 15 -20 0 -30 5 -30 15 0 10 10 15 30
15 20 0 30 -5 30 -15z m130 -65 c0 -16 7 -20 30 -20 17 0 30 -4 30 -10 0 -5 5
-10 11 -10 21 0 59 -45 59 -71 0 -59 -13 -119 -26 -119 -8 0 -14 -7 -14 -15 0
-8 -7 -15 -15 -15 -8 0 -15 -9 -15 -20 0 -11 -7 -20 -15 -20 -8 0 -15 -6 -15
-14 0 -12 -23 -15 -125 -15 -102 0 -125 3 -125 15 0 9 -11 14 -30 14 -21 0
-30 5 -30 16 0 9 -9 18 -20 21 -11 3 -20 12 -20 19 0 8 -7 14 -15 14 -8 0 -15
7 -15 15 0 8 7 15 15 15 8 0 15 -7 15 -15 0 -8 9 -15 20 -15 11 0 20 -7 20
-15 0 -10 10 -15 30 -15 22 0 30 -5 30 -17 0 -16 13 -18 125 -18 112 0 125 2
125 18 0 9 7 17 15 17 8 0 15 7 15 15 0 8 7 15 15 15 12 0 15 15 15 75 0 62
-3 75 -16 75 -9 0 -18 9 -21 21 -4 16 -12 20 -29 16 -16 -3 -24 0 -24 9 0 9
-11 14 -28 14 -34 0 -43 7 -35 26 3 8 18 14 34 14 22 0 29 -5 29 -20z m340
-105 c0 -78 -3 -95 -15 -95 -10 0 -15 -10 -15 -30 0 -20 -5 -30 -15 -30 -10 0
-15 -11 -15 -35 0 -24 -5 -35 -15 -35 -8 0 -15 -7 -15 -15 0 -8 -7 -15 -15
-15 -8 0 -15 -7 -15 -15 0 -8 -7 -15 -15 -15 -8 0 -15 -7 -15 -15 0 -8 -9 -15
-20 -15 -11 0 -20 -7 -20 -15 0 -10 -10 -15 -30 -15 -19 0 -30 -5 -30 -14 0
-21 -33 -26 -177 -26 -139 0 -163 4 -163 26 0 10 -14 14 -50 14 -38 0 -50 4
-50 15 0 10 -10 15 -30 15 -20 0 -30 -5 -30 -15 0 -8 -7 -15 -15 -15 -12 0
-15 17 -15 95 0 78 3 95 15 95 12 0 15 19 15 108 0 90 3 109 15 109 11 0 15
-12 15 -49 0 -36 4 -48 15 -48 10 0 15 -10 15 -29 0 -16 -6 -31 -15 -35 -8 -3
-15 -17 -15 -31 0 -16 -6 -25 -15 -25 -12 0 -15 -14 -15 -65 l0 -65 35 0 c24
0 35 -5 35 -15 0 -11 12 -15 45 -15 33 0 45 -4 45 -15 0 -13 26 -15 170 -15
144 0 170 2 170 15 0 10 10 15 30 15 20 0 30 5 30 15 0 8 7 15 15 15 8 0 15 9
15 20 0 11 7 20 15 20 8 0 15 7 15 15 0 8 7 15 15 15 10 0 15 10 15 30 0 23 4
30 20 30 16 0 20 7 20 30 0 20 5 30 15 30 12 0 15 17 15 95 0 78 3 95 15 95
12 0 15 -17 15 -95z m65 -681 c10 -15 35 -16 238 -9 125 4 227 11 227 16 0 5
7 9 15 9 21 0 19 -46 -2 -55 -10 -3 -129 -3 -265 1 l-248 7 0 23 c0 28 17 31
35 8z"/>
<path d="M240 2125 c0 -43 4 -75 10 -75 6 0 10 32 10 75 0 43 -4 75 -10 75 -6
0 -10 -32 -10 -75z"/>
<path d="M580 2125 c0 -60 3 -75 15 -75 12 0 15 15 15 75 0 60 -3 75 -15 75
-12 0 -15 -15 -15 -75z"/>
<path d="M270 2020 c0 -18 -6 -33 -15 -36 -12 -5 -15 -27 -15 -110 0 -63 4
-104 10 -104 6 0 10 32 10 75 0 60 3 75 15 75 12 0 15 14 15 65 0 37 -4 65
-10 65 -5 0 -10 -14 -10 -30z"/>
<path d="M550 1985 c0 -51 3 -65 15 -65 12 0 15 -15 15 -75 0 -60 3 -75 15
-75 12 0 15 18 15 104 0 95 -2 104 -20 109 -15 4 -20 14 -20 36 0 17 -4 31
-10 31 -6 0 -10 -28 -10 -65z"/>
<path d="M270 1740 c0 -18 -6 -33 -15 -36 -12 -5 -15 -27 -15 -110 0 -63 4
-104 10 -104 6 0 10 32 10 75 0 60 3 75 15 75 12 0 15 14 15 65 0 37 -4 65
-10 65 -5 0 -10 -14 -10 -30z"/>
<path d="M550 1705 c0 -51 3 -65 15 -65 12 0 15 -15 15 -75 0 -60 3 -75 15
-75 12 0 15 18 15 105 0 98 -1 105 -20 105 -16 0 -20 7 -20 35 0 19 -4 35 -10
35 -6 0 -10 -28 -10 -65z"/>
<path d="M270 1460 c0 -18 -6 -33 -15 -36 -12 -5 -15 -27 -15 -110 0 -63 4
-104 10 -104 6 0 10 32 10 75 0 60 3 75 15 75 12 0 15 14 15 65 0 37 -4 65
-10 65 -5 0 -10 -14 -10 -30z"/>
<path d="M550 1425 c0 -51 3 -65 15 -65 12 0 15 -15 15 -75 0 -60 3 -75 15
-75 12 0 15 18 15 105 0 98 -1 105 -20 105 -16 0 -20 7 -20 35 0 19 -4 35 -10
35 -6 0 -10 -28 -10 -65z"/>
<path d="M270 1180 c0 -18 -6 -33 -15 -36 -12 -5 -15 -27 -15 -110 0 -63 4
-104 10 -104 6 0 10 32 10 75 0 60 3 75 15 75 12 0 15 14 15 65 0 37 -4 65
-10 65 -5 0 -10 -14 -10 -30z"/>
<path d="M550 1145 c0 -51 3 -65 15 -65 12 0 15 -15 15 -75 0 -60 3 -75 15
-75 12 0 15 18 15 105 0 98 -1 105 -20 105 -16 0 -20 7 -20 35 0 19 -4 35 -10
35 -6 0 -10 -28 -10 -65z"/>
<path d="M270 890 c0 -20 -5 -30 -15 -30 -12 0 -15 -18 -15 -105 0 -63 4 -105
10 -105 6 0 10 32 10 75 0 60 3 75 15 75 12 0 15 13 15 60 0 33 -4 60 -10 60
-5 0 -10 -13 -10 -30z"/>
<path d="M550 860 c0 -47 3 -60 15 -60 12 0 15 -15 15 -75 0 -60 3 -75 15 -75
12 0 15 18 15 105 0 98 -1 105 -20 105 -16 0 -20 7 -20 30 0 17 -4 30 -10 30
-6 0 -10 -27 -10 -60z"/>
</g>
</svg>
